<?xml version="1.0" standalone="no"?>
<!DOCTYPE svg PUBLIC "-//W3C//DTD SVG 20010904//EN"
 "http://www.w3.org/TR/2001/REC-SVG-20010904/DTD/svg10.dtd">
<svg version="1.0" xmlns="http://www.w3.org/2000/svg"
 width="500.000000pt" height="500.000000pt" viewBox="0 0 500.000000 500.000000"
 preserveAspectRatio="xMidYMid meet">

<g transform="translate(0.000000,500.000000) scale(0.100000,-0.100000)"
fill="#000000" stroke="none">
<path d="M2035 4229 c-71 -4 -155 -14 -185 -22 -101 -29 -249 -94 -292 -129
-24 -19 -60 -44 -81 -57 -21 -13 -69 -50 -108 -82 -39 -32 -74 -59 -78 -59 -4
0 -17 11 -29 25 -36 41 -82 34 -138 -19 l-46 -43 -137 -6 c-90 -3 -154 -11
-188 -22 -111 -37 -234 -174 -288 -318 -29 -80 -32 -150 -9 -228 14 -47 15
-71 5 -184 -16 -186 -14 -210 20 -331 41 -145 74 -218 165 -365 94 -154 124
-197 194 -280 55 -66 101 -169 100 -227 0 -12 14 -83 30 -158 17 -74 28 -140
25 -145 -4 -5 -21 -9 -38 -9 -18 0 -81 -13 -142 -28 -82 -20 -135 -41 -205
-80 -131 -72 -246 -163 -253 -199 -7 -34 19 -84 107 -207 379 -529 922 -879
1559 -1006 149 -30 256 -40 438 -40 l165 0 25 27 c60 65 99 174 99 274 0 29
-7 91 -16 138 -20 106 -15 240 10 293 21 43 122 158 140 158 44 0 61 -79 80
-385 14 -211 33 -310 70 -360 10 -14 7 9 -10 80 -14 55 -27 136 -29 180 -12
202 -16 247 -33 351 -17 111 -31 144 -60 144 -11 0 -5 11 18 35 19 19 39 35
44 34 10 -1 58 -52 224 -239 96 -109 131 -163 148 -231 9 -35 23 -76 30 -91 8
-15 25 -69 39 -119 13 -51 28 -96 33 -101 11 -11 152 53 295 134 l108 62 -6
34 c-3 18 -19 66 -34 105 -15 40 -43 110 -61 157 -18 47 -40 101 -50 120 -32
63 -157 216 -229 281 -39 35 -71 68 -71 75 0 14 34 28 115 49 66 17 147 46
142 51 -2 2 -32 -6 -68 -17 -64 -20 -92 -22 -334 -34 -114 -5 -427 7 -540 21
-28 3 -34 2 -20 -4 61 -28 449 -46 635 -30 l85 7 -55 -18 c-138 -46 -359 -160
-441 -227 -116 -94 -182 -178 -342 -436 -19 -31 -107 -233 -107 -246 0 -5 -16
-27 -35 -50 -55 -64 -115 -79 -244 -63 -117 15 -192 46 -285 119 -33 26 -88
66 -120 87 -76 51 -155 123 -189 172 -14 21 -53 101 -86 178 -32 77 -82 191
-111 254 -28 62 -49 115 -46 118 3 3 26 -15 50 -41 25 -25 49 -46 54 -46 17 0
21 13 11 31 -8 16 -6 19 9 19 11 0 35 -6 53 -13 35 -13 53 -14 79 -5 8 3 51
12 95 19 66 12 80 17 84 34 4 24 19 35 46 35 11 0 33 7 49 15 15 8 37 15 47
15 10 0 22 7 27 16 5 9 35 22 68 29 78 16 144 38 144 47 0 4 -4 10 -10 13 -5
3 -10 10 -10 16 0 12 37 43 53 45 33 3 38 5 32 14 -8 13 31 50 55 50 23 0 43
32 34 54 -3 9 1 23 10 31 25 25 19 58 -17 106 -36 47 -70 110 -63 116 2 2 21
-17 42 -44 80 -98 118 -122 216 -134 37 -5 91 -18 118 -30 41 -18 55 -20 75
-11 21 10 25 18 25 57 0 41 -32 181 -45 193 -10 10 -4 -54 10 -116 25 -106 2
-137 -70 -92 -18 11 -64 24 -102 29 -38 5 -85 16 -104 26 -19 9 -77 62 -130
117 -80 83 -101 111 -124 169 -24 59 -27 77 -22 133 6 66 43 164 75 200 10 10
30 27 46 39 l28 20 -6 -34 -7 -34 21 38 c19 35 24 38 58 35 30 -2 38 -7 40
-26 2 -16 -2 -22 -15 -22 -37 -1 -114 -36 -147 -68 -44 -41 -60 -90 -53 -162
6 -73 33 -122 101 -190 71 -69 73 -56 2 20 -85 92 -107 185 -63 270 28 57 90
101 152 108 39 4 51 2 62 -13 20 -28 16 -74 -12 -133 -29 -63 -30 -69 -9 -51
27 22 46 70 49 126 3 49 1 55 -26 75 -25 18 -41 58 -24 58 3 0 38 -23 78 -51
54 -38 79 -49 99 -46 17 2 46 -7 75 -22 39 -21 55 -40 89 -98 22 -40 44 -70
48 -66 4 5 14 -1 22 -12 14 -19 16 -19 25 -2 6 9 20 17 33 17 22 0 115 53 128
73 4 6 4 24 1 41 -4 20 -3 27 5 22 6 -3 0 26 -14 66 -43 127 -56 191 -56 273
0 98 10 138 70 273 l46 105 12 -59 c7 -32 17 -70 22 -84 9 -22 11 -19 11 25 1
72 23 148 80 278 28 61 70 168 95 237 25 69 59 163 76 210 28 75 31 93 26 152
-9 100 -25 140 -65 160 -49 25 -52 29 -36 73 40 112 -8 165 -205 230 -30 10
-103 38 -162 62 -147 60 -321 100 -512 118 -88 8 -175 14 -195 13 -20 -1 -94
-5 -166 -9z m-964 -625 c8 -10 22 -14 38 -11 34 7 61 -9 61 -35 0 -11 -15 -40
-34 -63 -59 -71 -78 -119 -87 -212 -4 -47 -13 -98 -19 -114 -14 -33 -44 -39
-59 -11 -14 27 -41 183 -41 241 0 129 92 264 141 205z"/>
<path d="M3430 3553 c0 -12 118 -193 126 -193 7 0 -43 85 -88 149 -21 30 -38
50 -38 44z"/>
<path d="M3581 3290 c0 -8 13 -64 29 -125 22 -80 29 -96 25 -60 -5 50 -53 214
-54 185z"/>
<path d="M3635 2921 c-61 -17 -130 -118 -123 -179 3 -25 5 -24 36 25 28 43 69
83 86 83 2 0 2 -19 0 -42 -6 -54 10 -23 21 41 5 31 4 42 -4 37 -6 -4 -11 -3
-11 3 0 5 5 11 12 13 20 7 4 25 -17 19z"/>
<path d="M3560 2599 c-51 -58 -53 -62 -35 -75 10 -8 28 -14 39 -14 20 1 19 2
-3 14 -23 13 -23 14 -5 32 23 23 66 95 61 100 -2 2 -28 -23 -57 -57z"/>
<path d="M3745 2620 c38 -39 45 -45 45 -35 0 10 -63 75 -73 75 -6 0 7 -18 28
-40z"/>
<path d="M3615 2600 c3 -5 12 -7 20 -3 21 7 19 13 -6 13 -11 0 -18 -4 -14 -10z"/>
<path d="M3595 2570 c-3 -5 -2 -10 4 -10 5 0 13 5 16 10 3 6 2 10 -4 10 -5 0
-13 -4 -16 -10z"/>
<path d="M3578 2543 c7 -3 16 -2 19 1 4 3 -2 6 -13 5 -11 0 -14 -3 -6 -6z"/>
<path d="M3842 2515 c23 -36 100 -135 104 -135 11 0 -30 60 -72 105 -25 28
-40 41 -32 30z"/>
<path d="M3960 2361 c0 -5 5 -13 10 -16 6 -3 10 -2 10 4 0 5 -4 13 -10 16 -5
3 -10 2 -10 -4z"/>
<path d="M3960 2301 c-9 -9 -27 -24 -40 -33 -14 -9 -19 -17 -13 -17 15 -1 81
55 73 62 -3 2 -12 -3 -20 -12z"/>
<path d="M3847 1992 c-22 -24 -59 -110 -54 -125 2 -7 10 2 17 18 6 17 23 51
36 78 27 50 27 58 1 29z"/>
<path d="M2484 1928 c-5 -7 -2 -9 9 -5 20 8 32 -8 46 -60 9 -34 17 -44 39 -49
15 -3 33 -8 40 -10 8 -2 12 1 10 8 -3 7 -18 16 -35 20 -24 6 -32 15 -37 40
-10 53 -53 86 -72 56z"/>
<path d="M3827 1853 c-7 -23 -11 -90 -7 -123 2 -14 6 11 10 55 8 79 7 103 -3
68z"/>
<path d="M2376 1788 c-9 -54 -2 -84 24 -98 14 -7 26 -3 56 20 41 33 76 46 95
34 8 -4 9 -3 5 4 -12 20 -63 13 -94 -13 -53 -45 -68 -33 -75 60 l-3 40 -8 -47z"/>
<path d="M3886 1554 c7 -56 -14 -118 -63 -183 l-26 -36 33 30 c18 17 41 48 51
70 20 43 25 130 9 155 -6 10 -8 -2 -4 -36z"/>
<path d="M2270 731 c58 -51 166 -101 219 -101 75 0 82 17 10 22 -64 4 -123 26
-219 83 l-45 27 35 -31z"/>
<path d="M3028 596 c38 -43 47 -73 70 -219 l19 -118 -30 -12 c-26 -11 -15 -13
86 -12 101 0 112 2 84 12 -17 6 -53 12 -79 12 l-48 1 0 43 c0 62 -25 196 -45
245 -9 23 -30 51 -45 62 -42 30 -46 24 -12 -14z"/>
<path d="M3135 140 c-16 -7 -12 -9 20 -9 22 -1 58 -4 80 -7 27 -5 37 -3 30 4
-14 14 -106 23 -130 12z"/>
</g>
</svg>
